HIERARCHY
ROOT joint_Root
{
	OFFSET 0.0 0.0 0.0
	CHANNELS 6 Xposition Yposition Zposition Zrotation Xrotation Yrotation 
	JOINT Hips
	{
		OFFSET 4.5925 91.4895 -427.239
		CHANNELS 6 Xposition Yposition Zposition Zrotation Xrotation Yrotation 
		JOINT Spine
		{
			OFFSET 15.7357 0.0 0.0
			CHANNELS 6 Xposition Yposition Zposition Zrotation Xrotation Yrotation 
			JOINT Chest
			{
				OFFSET 8.98455 -0.406207 0.0
				CHANNELS 6 Xposition Yposition Zposition Zrotation Xrotation Yrotation 
				JOINT Neck
				{
					OFFSET 16.3773 0.0 0.0
					CHANNELS 6 Xposition Yposition Zposition Zrotation Xrotation Yrotation 
					JOINT Head
					{
						OFFSET 6.45672 0.0 0.0
						CHANNELS 6 Xposition Yposition Zposition Zrotation Xrotation Yrotation 
						End Site
						{
							OFFSET 0.0 0.0 0.0
						}
					}
				}
				JOINT Shoulder_L
				{
					OFFSET 12.9942 -0.242716 4.98039
					CHANNELS 6 Xposition Yposition Zposition Zrotation Xrotation Yrotation 
					JOINT UpperArm_L
					{
						OFFSET 5.34809 0.0 0.0
						CHANNELS 6 Xposition Yposition Zposition Zrotation Xrotation Yrotation 
						JOINT LowerArm_L
						{
							OFFSET 24.3286 1.87007e-05 0.0
							CHANNELS 6 Xposition Yposition Zposition Zrotation Xrotation Yrotation 
							JOINT Hand_L
							{
								OFFSET 22.2916 0.0 0.0
								CHANNELS 6 Xposition Yposition Zposition Zrotation Xrotation Yrotation 
								End Site
								{
									OFFSET 0.0 0.0 0.0
								}
							}
						}
					}
				}
				JOINT Shoulder_R
				{
					OFFSET 12.9945 -0.242716 -4.98039
					CHANNELS 6 Xposition Yposition Zposition Zrotation Xrotation Yrotation 
					JOINT UpperArm_R
					{
						OFFSET -5.34813 0.0 0.0
						CHANNELS 6 Xposition Yposition Zposition Zrotation Xrotation Yrotation 
						JOINT LowerArm_R
						{
							OFFSET -24.3289 0.000322201 0.0
							CHANNELS 6 Xposition Yposition Zposition Zrotation Xrotation Yrotation 
							JOINT Hand_R
							{
								OFFSET -22.2915 -0.000108084 0.0
								CHANNELS 6 Xposition Yposition Zposition Zrotation Xrotation Yrotation 
								End Site
								{
									OFFSET 0.0 0.0 0.0
								}
							}
						}
					}
				}
			}
		}
		JOINT UpperLeg_L
		{
			OFFSET -2.19248 -6.46944 0.0
			CHANNELS 6 Xposition Yposition Zposition Zrotation Xrotation Yrotation 
			JOINT LowerLeg_L
			{
				OFFSET 39.0811 0.0 -1.23785e-05
				CHANNELS 6 Xposition Yposition Zposition Zrotation Xrotation Yrotation 
				JOINT Foot_L
				{
					OFFSET 40.9854 0.0 -1.26872e-05
					CHANNELS 6 Xposition Yposition Zposition Zrotation Xrotation Yrotation 
					JOINT Toes_L
					{
						OFFSET 11.7543 0.0 0.0
						CHANNELS 6 Xposition Yposition Zposition Zrotation Xrotation Yrotation 
						End Site
						{
							OFFSET 0.0 0.0 0.0
						}
					}
				}
			}
		}
		JOINT UpperLeg_R
		{
			OFFSET -2.19251 6.46944 0.0
			CHANNELS 6 Xposition Yposition Zposition Zrotation Xrotation Yrotation 
			JOINT LowerLeg_R
			{
				OFFSET -39.0811 -0.00228153 -0.0401928
				CHANNELS 6 Xposition Yposition Zposition Zrotation Xrotation Yrotation 
				JOINT Foot_R
				{
					OFFSET -40.9854 0.0 0.0
					CHANNELS 6 Xposition Yposition Zposition Zrotation Xrotation Yrotation 
					JOINT Toes_R
					{
						OFFSET -11.7543 0.0 0.0
						CHANNELS 6 Xposition Yposition Zposition Zrotation Xrotation Yrotation 
						End Site
						{
							OFFSET 0.0 0.0 0.0
						}
					}
				}
			}
		}
	}
}
MOTION
Frames:	7
Frame Time:	0.0333333
0.000000 0.000000 0.000000 0.000000 0.000000 -0.000000 127.216000 90.879800 146.998000 93.158400 -40.608400 4.262870 15.735700 0.000005 -0.000001 98.012700 84.686800 -96.469800 8.984550 -0.406207 -0.000000 2.740320 1.412270 3.048810 16.377300 -0.000001 -0.000001 -3.101060 -4.213460 4.272950 6.456720 -0.000001 -0.000000 -10.177800 -6.208930 11.516100 12.994200 -0.242716 4.980390 -90.869900 3.205210 -74.807700 5.348090 -0.000007 -0.000001 -75.874700 20.268600 9.315890 24.328600 0.000019 0.000005 6.064930 35.461400 -10.378100 22.291600 -0.000001 0.000005 3.853190 5.095670 5.208260 12.994500 -0.242716 -4.980390 88.689000 9.132510 -81.795200 -5.348130 -0.000001 -0.000004 -60.635400 35.391000 -19.651000 -24.328900 0.000322 -0.000009 1.698500 1.940570 -41.226300 -22.291500 -0.000108 -0.000004 16.910700 5.470500 -5.389220 -2.192480 -6.469440 -0.000000 -177.311000 -15.917800 -18.254200 39.081100 -0.000007 -0.000012 -0.021990 0.090656 13.634500 40.985400 -0.000006 -0.000013 -8.577360 19.355200 -61.059000 11.754300 -0.000000 0.000003 -0.006869 -0.078544 -19.774200 -2.192510 6.469440 -0.000001 178.363000 7.228700 -172.518000 -39.081100 -0.002282 -0.040193 0.009423 -0.011479 28.054500 -40.985400 0.000008 0.000006 21.540400 21.346800 -71.775600 -11.754300 -0.000006 -0.000006 -0.046297 -0.284300 -28.271200
0.000000 0.000000 0.000000 0.000000 0.000000 -0.000000 125.738000 90.365500 149.995000 93.275700 -42.129500 4.341360 15.735700 0.000005 -0.000001 98.310700 84.834400 -96.837100 8.984550 -0.406207 -0.000000 2.440750 1.423630 2.913940 16.377300 -0.000001 -0.000001 -2.655280 -4.412180 4.074000 6.456720 -0.000001 -0.000000 -9.941760 -6.441790 11.193100 12.994200 -0.242716 4.980390 -90.933800 3.390010 -74.589900 5.348090 -0.000007 -0.000001 -73.819500 19.751100 6.950020 24.328600 0.000019 0.000005 6.232630 34.953200 -10.792700 22.291600 -0.000001 0.000005 5.801950 5.074680 5.687000 12.994500 -0.242716 -4.980390 88.675700 8.965320 -81.562200 -5.348130 -0.000001 -0.000004 -61.210100 35.536700 -17.375500 -24.328900 0.000322 -0.000009 1.421360 1.704960 -39.850300 -22.291500 -0.000108 -0.000004 16.763800 5.469830 -5.363300 -2.192480 -6.469440 -0.000000 -179.191000 -16.518900 -22.327500 39.081100 -0.000007 -0.000012 -0.022215 0.056157 21.582700 40.985400 -0.000006 -0.000013 -4.153040 19.779800 -63.383600 11.754300 -0.000000 0.000003 -0.007010 -0.079756 -19.823600 -2.192510 6.469440 -0.000001 177.271000 6.441090 -170.855000 -39.081100 -0.002282 -0.040193 0.013149 -0.017978 28.704100 -40.985400 0.000008 0.000006 21.980900 21.994400 -72.041300 -11.754300 -0.000006 -0.000006 -0.063141 -0.341849 -30.702300
0.000000 0.000000 0.000000 0.000000 0.000000 -0.000000 124.182000 89.740800 153.212000 95.232400 -43.623400 5.357760 15.735700 0.000005 -0.000001 97.648800 85.123200 -96.736400 8.984550 -0.406207 -0.000000 1.891880 1.250640 1.802490 16.377300 -0.000001 -0.000001 -2.036590 -4.478360 4.103590 6.456720 -0.000001 -0.000000 -9.808440 -6.580910 11.025800 12.994200 -0.242716 4.980390 -91.161200 4.070520 -74.064800 5.348090 -0.000007 -0.000001 -71.145300 19.084600 4.556740 24.328600 0.000019 0.000005 6.902260 33.247700 -12.451700 22.291600 -0.000001 0.000005 7.528300 5.079560 5.580270 12.994500 -0.242716 -4.980390 88.548200 9.476950 -81.249700 -5.348130 -0.000001 -0.000004 -60.632800 36.088400 -15.721800 -24.328900 0.000322 -0.000009 1.333440 1.785350 -36.794800 -22.291500 -0.000108 -0.000004 16.127200 5.460870 -5.031090 -2.192480 -6.469440 -0.000000 179.096000 -14.146700 -24.052900 39.081100 -0.000007 -0.000012 0.029128 -0.059770 25.981400 40.985400 -0.000006 -0.000013 -1.930560 20.217500 -56.632700 11.754300 -0.000000 0.000003 -0.007916 -0.087352 -20.133700 -2.192510 6.469440 -0.000001 174.704000 5.656060 -169.779000 -39.081100 -0.002282 -0.040193 0.011895 -0.014846 30.063000 -40.985400 0.000008 0.000006 22.533900 22.472800 -72.516700 -11.754300 -0.000006 -0.000006 -0.085172 -0.406170 -33.458900
0.000000 0.000000 0.000000 0.000000 0.000000 -0.000000 122.268000 88.899300 156.645000 96.719000 -45.754900 6.427210 15.735700 0.000005 -0.000001 98.047700 85.403200 -97.554400 8.984550 -0.406207 -0.000000 1.332140 1.258780 0.971093 16.377300 -0.000001 -0.000001 -1.447440 -4.346280 4.149470 6.456720 -0.000001 -0.000000 -9.279100 -6.632610 11.060200 12.994200 -0.242716 4.980390 -91.446700 4.879760 -73.465000 5.348090 -0.000007 -0.000001 -68.536300 18.536600 2.699950 24.328600 0.000019 0.000005 7.630210 30.395100 -14.832200 22.291600 -0.000001 0.000005 9.250740 5.107940 4.935060 12.994500 -0.242716 -4.980390 88.401500 10.156900 -81.007900 -5.348130 -0.000001 -0.000004 -59.895800 36.767900 -14.246300 -24.328900 0.000322 -0.000009 1.683340 2.678300 -32.197800 -22.291500 -0.000108 -0.000004 15.461900 5.445620 -4.483250 -2.192480 -6.469440 -0.000000 178.881000 -10.992500 -24.925900 39.081100 -0.000007 -0.000012 0.000021 -0.000033 31.752300 40.985400 -0.000006 -0.000013 -1.002890 16.183900 -55.405400 11.754300 -0.000000 0.000003 -0.001850 -0.026832 -17.667800 -2.192510 6.469440 -0.000001 172.761000 4.085260 -168.886000 -39.081100 -0.002282 -0.040193 0.013166 -0.015566 32.374000 -40.985400 0.000008 0.000006 23.265100 22.561900 -72.235100 -11.754300 -0.000006 -0.000006 -0.120735 -0.493336 -37.276300
0.000000 0.000000 0.000000 0.000000 0.000000 -0.000000 120.070000 88.207300 160.016000 97.211100 -48.123600 7.746850 15.735700 0.000005 -0.000001 98.630600 85.313900 -98.302100 8.984550 -0.406207 -0.000000 1.496710 1.387750 0.638424 16.377300 -0.000001 -0.000001 -1.560250 -4.336960 4.043820 6.456720 -0.000001 -0.000000 -8.695390 -6.871740 11.487900 12.994200 -0.242716 4.980390 -91.782700 5.884770 -73.113700 5.348090 -0.000007 -0.000001 -65.824800 18.883500 0.483144 24.328600 0.000019 0.000005 7.583610 26.459900 -16.638000 22.291600 -0.000001 0.000005 10.897500 5.152980 3.876570 12.994500 -0.242716 -4.980390 88.269200 11.123100 -81.097700 -5.348130 -0.000001 -0.000004 -59.897400 35.526800 -12.218000 -24.328900 0.000322 -0.000009 2.391630 4.793600 -26.584900 -22.291500 -0.000108 -0.000004 15.252900 5.429250 -3.914470 -2.192480 -6.469440 -0.000000 179.630000 -7.885570 -24.129400 39.081100 -0.000007 -0.000012 -0.034367 0.043718 38.172400 40.985400 -0.000006 -0.000013 -1.094190 10.984200 -61.849000 11.754300 -0.000000 0.000003 -0.000015 -0.000195 -16.585200 -2.192510 6.469440 -0.000001 171.999000 1.976250 -168.514000 -39.081100 -0.002282 -0.040193 0.020468 -0.023265 36.445100 -40.985400 0.000008 0.000006 23.457500 22.829700 -69.027500 -11.754300 -0.000006 -0.000006 -0.181479 -0.613418 -42.734200
0.000000 0.000000 0.000000 0.000000 0.000000 -0.000000 117.928000 87.753100 163.171000 98.083400 -51.487000 9.881840 15.735700 0.000005 -0.000001 103.032000 84.807200 -102.941000 8.984550 -0.406207 -0.000000 2.352020 2.335790 0.133642 16.377300 -0.000001 -0.000001 -1.765130 -4.438270 4.051010 6.456720 -0.000001 -0.000000 -8.859210 -7.413170 11.699600 12.994200 -0.242716 4.980390 -91.737500 5.807530 -73.312500 5.348090 -0.000007 -0.000001 -64.298700 19.671500 -2.761910 24.328600 0.000019 0.000005 7.335410 23.612700 -17.817200 22.291600 -0.000001 0.000005 12.336600 5.179880 3.218960 12.994500 -0.242716 -4.980390 88.351800 11.139500 -81.528900 -5.348130 -0.000001 -0.000004 -61.898500 31.407100 -9.891040 -24.328900 0.000322 -0.000009 2.702030 7.312830 -20.362600 -22.291500 -0.000108 -0.000004 16.196100 5.400120 -2.953560 -2.192480 -6.469440 -0.000000 179.641000 -8.084940 -21.457000 39.081100 -0.000007 -0.000012 -0.140275 0.156675 41.839400 40.985400 -0.000006 -0.000013 -1.037300 7.917450 -66.883500 11.754300 -0.000000 0.000003 -0.000185 -0.001737 -16.643200 -2.192510 6.469440 -0.000001 170.802000 -0.191118 -170.060000 -39.081100 -0.002282 -0.040193 0.025695 -0.024072 42.971100 -40.985400 0.000008 0.000006 21.572200 24.476100 -62.995200 -11.754300 -0.000006 -0.000006 -0.220274 -0.677764 -45.780900
0.000000 0.000000 0.000000 0.000000 0.000000 -0.000000 115.954000 87.577700 165.921000 99.227200 -55.652800 11.944300 15.735700 0.000005 -0.000001 105.548000 84.394100 -105.619000 8.984550 -0.406207 -0.000000 3.040900 3.005130 -0.220429 16.377300 -0.000001 -0.000001 -1.972860 -4.130410 4.044970 6.456720 -0.000001 -0.000000 -8.987090 -7.569470 11.484400 12.994200 -0.242716 4.980390 -91.672700 5.584760 -73.296700 5.348090 -0.000007 -0.000001 -63.221300 19.607100 -5.400990 24.328600 0.000019 0.000005 7.982450 22.959800 -19.773000 22.291600 -0.000001 0.000005 12.671900 5.176860 3.292860 12.994500 -0.242716 -4.980390 88.570000 10.493800 -82.195700 -5.348130 -0.000001 -0.000004 -63.749700 27.505800 -8.747150 -24.328900 0.000322 -0.000009 2.337470 9.249590 -14.258700 -22.291500 -0.000108 -0.000004 18.252700 5.339400 -1.075200 -2.192480 -6.469440 -0.000000 179.609000 -11.439400 -18.185400 39.081100 -0.000007 -0.000012 -0.181246 0.192568 43.265700 40.985400 -0.000006 -0.000013 -0.597129 6.904190 -70.550200 11.754300 -0.000000 0.000003 -0.000367 -0.003075 -16.691300 -2.192510 6.469440 -0.000001 169.434000 -2.334270 -174.090000 -39.081100 -0.002282 -0.040193 0.036696 -0.027260 50.823000 -40.985400 0.000008 0.000006 15.842300 26.091400 -54.252100 -11.754300 -0.000006 -0.000006 -0.179124 -0.609248 -42.540100
